<?xml version="1.0" encoding="UTF-8" standalone="no"?>
<svg
   xmlns:dc="http://purl.org/dc/elements/1.1/"
   xmlns:cc="http://creativecommons.org/ns#"
   xmlns:rdf="http://www.w3.org/1999/02/22-rdf-syntax-ns#"
   xmlns:svg="http://www.w3.org/2000/svg"
   xmlns="http://www.w3.org/2000/svg"
   xmlns:xlink="http://www.w3.org/1999/xlink"
   xmlns:sodipodi="http://sodipodi.sourceforge.net/DTD/sodipodi-0.dtd"
   xmlns:inkscape="http://www.inkscape.org/namespaces/inkscape"
   width="100"
   height="100"
   viewBox="0 0 100 100"
   version="1.1"
   id="svg8"
   inkscape:version="1.0.2 (e86c870879, 2021-01-15)"
   sodipodi:docname="iPro.svg">
  <defs
     id="defs2">
    <marker
       style="overflow:visible"
       id="marker1248"
       refX="0.0"
       refY="0.0"
       orient="auto"
       inkscape:stockid="Arrow1Lstart"
       inkscape:isstock="true">
      <path
         transform="scale(0.8) translate(12.5,0)"
         style="fill-rule:evenodd;stroke:#000000;stroke-width:1pt;stroke-opacity:1;fill:#000000;fill-opacity:1"
         d="M 0.0,0.0 L 5.0,-5.0 L -12.5,0.0 L 5.0,5.0 L 0.0,0.0 z "
         id="path1246" />
    </marker>
    <marker
       style="overflow:visible"
       id="Arrow1Lstart"
       refX="0.0"
       refY="0.0"
       orient="auto"
       inkscape:stockid="Arrow1Lstart"
       inkscape:isstock="true">
      <path
         transform="scale(0.8) translate(12.5,0)"
         style="fill-rule:evenodd;stroke:#000000;stroke-width:1pt;stroke-opacity:1;fill:#000000;fill-opacity:1"
         d="M 0.0,0.0 L 5.0,-5.0 L -12.5,0.0 L 5.0,5.0 L 0.0,0.0 z "
         id="path970" />
    </marker>
    <linearGradient
       inkscape:collect="always"
       xlink:href="#linearGradient1422-4"
       id="linearGradient1512-0"
       gradientUnits="userSpaceOnUse"
       gradientTransform="matrix(0.6153803,0,0,0.68875043,-150.18878,4.2224)"
       x1="162.80794"
       y1="139.05992"
       x2="162.80794"
       y2="64.813721" />
    <linearGradient
       inkscape:collect="always"
       id="linearGradient1422-4">
      <stop
         style="stop-color:#000000;stop-opacity:0.3137255"
         offset="0"
         id="stop7699" />
      <stop
         style="stop-color:#000000;stop-opacity:0"
         offset="1"
         id="stop7701" />
    </linearGradient>
    <linearGradient
       inkscape:collect="always"
       xlink:href="#linearGradient1422-4-1"
       id="linearGradient7697"
       gradientUnits="userSpaceOnUse"
       gradientTransform="matrix(0.52090559,0,0,0.68875043,-134.80756,-95.77759)"
       x1="162.80794"
       y1="139.05992"
       x2="162.80794"
       y2="49.669369" />
    <linearGradient
       id="linearGradient1422-4-1"
       inkscape:collect="always">
      <stop
         id="stop7704"
         offset="0"
         style="stop-color:#ffffff;stop-opacity:0.58823532" />
      <stop
         id="stop7706"
         offset="1"
         style="stop-color:#cccccc;stop-opacity:0;" />
    </linearGradient>
  </defs>
  <sodipodi:namedview
     id="base"
     pagecolor="#ffffff"
     bordercolor="#666666"
     borderopacity="1.0"
     inkscape:pageopacity="0.0"
     inkscape:pageshadow="2"
     inkscape:zoom="1.979899"
     inkscape:cx="183.56981"
     inkscape:cy="53.627648"
     inkscape:document-units="px"
     inkscape:current-layer="layer1"
     inkscape:document-rotation="0"
     showgrid="false"
     units="px"
     showguides="false"
     inkscape:snap-bbox="true"
     inkscape:snap-intersection-paths="true"
     inkscape:snap-smooth-nodes="true"
     inkscape:snap-midpoints="true"
     inkscape:object-paths="true" />
  <metadata
     id="metadata5">
    <rdf:RDF>
      <cc:Work
         rdf:about="">
        <dc:format>image/svg+xml</dc:format>
        <dc:type
           rdf:resource="http://purl.org/dc/dcmitype/StillImage" />
        <dc:title />
      </cc:Work>
    </rdf:RDF>
  </metadata>
  <g
     inkscape:label="Layer 1"
     inkscape:groupmode="layer"
     id="layer1">
    <circle
       r="50"
       style="display:inline;opacity:0.988;fill:#00daaa;fill-opacity:1;stroke:none;stroke-width:5.4336;stroke-linecap:round;stroke-linejoin:round;stroke-miterlimit:4;stroke-dasharray:none;stroke-dashoffset:0;stroke-opacity:1;paint-order:normal"
       id="ellipse3490"
       cx="50"
       cy="50.000004" />
    <ellipse
       ry="25.568554"
       rx="36.963703"
       cy="74.431458"
       cx="-50"
       id="ellipse1502-1"
       style="display:inline;opacity:0.988;fill:url(#linearGradient1512-0);fill-opacity:1;stroke:none;stroke-width:4.55723;stroke-linecap:round;stroke-linejoin:round;stroke-miterlimit:4;stroke-dasharray:none;stroke-dashoffset:0;stroke-opacity:1;paint-order:normal"
       transform="scale(-1,1)" />
    <ellipse
       cx="-50.000015"
       cy="-25.568544"
       rx="36.963703"
       ry="25.568554"
       transform="scale(-1)"
       id="ellipse7695"
       style="display:inline;opacity:0.988;fill:url(#linearGradient7697);fill-opacity:1;stroke:none;stroke-width:4.19284;stroke-linecap:round;stroke-linejoin:round;stroke-miterlimit:4;stroke-dasharray:none;stroke-dashoffset:0;stroke-opacity:1;paint-order:normal" />
    <g
       id="g1493"
       transform="matrix(0.78048689,0,0,0.78048689,10.975655,-72.090448)"
       style="stroke:#006650;stroke-opacity:1">
      <path
         id="path927"
         style="fill:none;stroke:#006650;stroke-width:5;stroke-linecap:butt;stroke-linejoin:miter;stroke-miterlimit:4;stroke-dasharray:none;stroke-opacity:1"
         d="m 86.13124,184.641 v 4.44709 c 0,0.10836 -0.11778,0.1956 -0.26407,0.1956 H 13.55562 c -0.14629,0 -0.26407,-0.0872 -0.26407,-0.1956 V 184.641 c 0,0 48.60385,0.49615 72.83969,0 z M 13.55562,123.57345 h 72.31155 c 0.14629,0 0.26407,0.0872 0.26407,0.19561 v 4.44708 H 13.29155 v -4.44708 c 0,-0.10837 0.11778,-0.19561 0.26407,-0.19561 z m -7.48054,52.03361 h 86.77183 c 0.20175,0 0.36417,0.16242 0.36417,0.36417 v 8.27915 c 0,0.20175 -0.16242,0.36416 -0.36417,0.36416 H 6.07508 c -0.20175,0 -0.36416,-0.16241 -0.36416,-0.36416 v -8.27915 c 0,-0.20175 0.16241,-0.36417 0.36416,-0.36417 z m 0.539,-47.34568 h 86.77184 c 0.20174,0 0.36416,0.16241 0.36416,0.36416 v 8.27915 c 0,0.20175 -0.16242,0.36416 -0.36416,0.36416 H 6.61408 c -0.20174,0 -0.36416,-0.16241 -0.36416,-0.36416 v -8.27915 c 0,-0.20175 0.16242,-0.36416 0.36416,-0.36416 z m -3.95594,9.00085 h 94.68372 c 0.78014,0 1.4082,0.62806 1.4082,1.4082 v 35.52843 c 0,0.78014 -0.62806,1.4082 -1.4082,1.4082 H 2.65814 c -0.78014,0 -1.4082,-0.62806 -1.4082,-1.4082 v -35.52843 c 0,-0.78014 0.62806,-1.4082 1.4082,-1.4082 z"
         sodipodi:nodetypes="cssssccsssccsssssssssssssssssssssssssssss" />
      <rect
         style="fill:none;stroke:#006650;stroke-width:4.41575;stroke-linecap:round;stroke-linejoin:round;stroke-miterlimit:4;stroke-dasharray:none;stroke-dashoffset:0;stroke-opacity:1"
         id="rect1481"
         width="38.231758"
         height="23.926466"
         x="52.884121"
         y="144.46533"
         ry="1.2433151" />
    </g>
  </g>
</svg>
