<?xml version="1.0" encoding="UTF-8" standalone="no"?>
<svg
   xmlns:dc="http://purl.org/dc/elements/1.1/"
   xmlns:cc="http://creativecommons.org/ns#"
   xmlns:rdf="http://www.w3.org/1999/02/22-rdf-syntax-ns#"
   xmlns:svg="http://www.w3.org/2000/svg"
   xmlns="http://www.w3.org/2000/svg"
   xmlns:xlink="http://www.w3.org/1999/xlink"
   xmlns:sodipodi="http://sodipodi.sourceforge.net/DTD/sodipodi-0.dtd"
   xmlns:inkscape="http://www.inkscape.org/namespaces/inkscape"
   width="100"
   height="100"
   viewBox="0 0 100 100"
   version="1.1"
   id="svg8"
   inkscape:version="1.0.2 (e86c870879, 2021-01-15)"
   sodipodi:docname="Sensor.svg">
  <defs
     id="defs2">
    <marker
       style="overflow:visible"
       id="marker1248"
       refX="0.0"
       refY="0.0"
       orient="auto"
       inkscape:stockid="Arrow1Lstart"
       inkscape:isstock="true">
      <path
         transform="scale(0.8) translate(12.5,0)"
         style="fill-rule:evenodd;stroke:#000000;stroke-width:1pt;stroke-opacity:1;fill:#000000;fill-opacity:1"
         d="M 0.0,0.0 L 5.0,-5.0 L -12.5,0.0 L 5.0,5.0 L 0.0,0.0 z "
         id="path1246" />
    </marker>
    <marker
       style="overflow:visible"
       id="Arrow1Lstart"
       refX="0.0"
       refY="0.0"
       orient="auto"
       inkscape:stockid="Arrow1Lstart"
       inkscape:isstock="true">
      <path
         transform="scale(0.8) translate(12.5,0)"
         style="fill-rule:evenodd;stroke:#000000;stroke-width:1pt;stroke-opacity:1;fill:#000000;fill-opacity:1"
         d="M 0.0,0.0 L 5.0,-5.0 L -12.5,0.0 L 5.0,5.0 L 0.0,0.0 z "
         id="path970" />
    </marker>
    <linearGradient
       inkscape:collect="always"
       xlink:href="#linearGradient1422-4"
       id="linearGradient1512-0"
       gradientUnits="userSpaceOnUse"
       gradientTransform="matrix(0.6153803,0,0,0.68875043,-150.18878,4.22239)"
       x1="162.80794"
       y1="139.05992"
       x2="162.80794"
       y2="64.813721" />
    <linearGradient
       inkscape:collect="always"
       id="linearGradient1422-4">
      <stop
         style="stop-color:#000000;stop-opacity:0.3137255"
         offset="0"
         id="stop7699" />
      <stop
         style="stop-color:#000000;stop-opacity:0"
         offset="1"
         id="stop7701" />
    </linearGradient>
    <linearGradient
       inkscape:collect="always"
       xlink:href="#linearGradient1422-4-1"
       id="linearGradient7697"
       gradientUnits="userSpaceOnUse"
       gradientTransform="matrix(0.52090559,0,0,0.68875043,-134.80755,-95.77758)"
       x1="162.80794"
       y1="139.05992"
       x2="162.80794"
       y2="49.669369" />
    <linearGradient
       id="linearGradient1422-4-1"
       inkscape:collect="always">
      <stop
         id="stop7704"
         offset="0"
         style="stop-color:#ffffff;stop-opacity:0.58823532" />
      <stop
         id="stop7706"
         offset="1"
         style="stop-color:#cccccc;stop-opacity:0;" />
    </linearGradient>
  </defs>
  <sodipodi:namedview
     id="base"
     pagecolor="#ffffff"
     bordercolor="#666666"
     borderopacity="1.0"
     inkscape:pageopacity="0"
     inkscape:pageshadow="2"
     inkscape:zoom="0.7"
     inkscape:cx="77.382893"
     inkscape:cy="10.424378"
     inkscape:document-units="px"
     inkscape:current-layer="layer1"
     inkscape:document-rotation="0"
     showgrid="false"
     units="px"
     showguides="true"
     inkscape:snap-bbox="true"
     inkscape:snap-intersection-paths="true"
     inkscape:snap-smooth-nodes="true"
     inkscape:snap-midpoints="true"
     inkscape:object-paths="true"
     inkscape:snap-nodes="true" />
  <metadata
     id="metadata5">
    <rdf:RDF>
      <cc:Work
         rdf:about="">
        <dc:format>image/svg+xml</dc:format>
        <dc:type
           rdf:resource="http://purl.org/dc/dcmitype/StillImage" />
        <dc:title></dc:title>
      </cc:Work>
    </rdf:RDF>
  </metadata>
  <g
     inkscape:label="Layer 1"
     inkscape:groupmode="layer"
     id="layer1"
     style="display:inline">
    <circle
       r="50"
       style="display:inline;opacity:0.988;fill:#02bc24;fill-opacity:1;stroke:none;stroke-width:5.4336;stroke-linecap:round;stroke-linejoin:round;stroke-miterlimit:4;stroke-dasharray:none;stroke-dashoffset:0;stroke-opacity:1;paint-order:normal"
       id="ellipse3490"
       cx="50"
       cy="50" />
    <ellipse
       ry="25.568554"
       rx="36.963703"
       cy="74.431458"
       cx="-50"
       id="ellipse1502-1"
       style="display:inline;opacity:0.988;fill:url(#linearGradient1512-0);fill-opacity:1;stroke:none;stroke-width:4.55723;stroke-linecap:round;stroke-linejoin:round;stroke-miterlimit:4;stroke-dasharray:none;stroke-dashoffset:0;stroke-opacity:1;paint-order:normal"
       transform="scale(-1,1)" />
    <ellipse
       cx="-50"
       cy="-25.568541"
       rx="36.963703"
       ry="25.568554"
       transform="scale(-1)"
       id="ellipse7695"
       style="display:inline;opacity:0.988;fill:url(#linearGradient7697);fill-opacity:1;stroke:none;stroke-width:4.19284;stroke-linecap:round;stroke-linejoin:round;stroke-miterlimit:4;stroke-dasharray:none;stroke-dashoffset:0;stroke-opacity:1;paint-order:normal" />
    <path
       id="path1999"
       style="color:#000000;font-style:normal;font-variant:normal;font-weight:normal;font-stretch:normal;font-size:medium;line-height:normal;font-family:sans-serif;font-variant-ligatures:normal;font-variant-position:normal;font-variant-caps:normal;font-variant-numeric:normal;font-variant-alternates:normal;font-variant-east-asian:normal;font-feature-settings:normal;font-variation-settings:normal;text-indent:0;text-align:start;text-decoration:none;text-decoration-line:none;text-decoration-style:solid;text-decoration-color:#000000;letter-spacing:normal;word-spacing:normal;text-transform:none;writing-mode:lr-tb;direction:ltr;text-orientation:mixed;dominant-baseline:auto;baseline-shift:baseline;text-anchor:start;white-space:normal;shape-padding:0;shape-margin:0;inline-size:0;clip-rule:nonzero;display:inline;overflow:visible;visibility:visible;isolation:auto;mix-blend-mode:normal;color-interpolation:sRGB;color-interpolation-filters:linearRGB;solid-color:#000000;solid-opacity:1;vector-effect:none;fill:#000000;fill-opacity:0.5;fill-rule:nonzero;stroke:none;stroke-linecap:butt;stroke-linejoin:miter;stroke-miterlimit:4;stroke-dasharray:none;stroke-dashoffset:0;stroke-opacity:1;color-rendering:auto;image-rendering:auto;shape-rendering:auto;text-rendering:auto;enable-background:accumulate;stop-color:#000000"
       d="M 35.55468,17.6543 24.8496,57.60742 18.44335,33.69922 14.58007,48.11719 H 9.99999 v 5.5 h 8.08594 l 6.76367,25.24023 10.70508,-39.95117 8.28906,30.9375 4.39453,-16.39648 h 2.7832 c 1.05388,2.26901 3.35427,3.86523 5.99805,3.86523 3.62309,0 6.61524,-2.99214 6.61524,-6.61523 0,-3.62309 -2.99215,-6.61329 -6.61524,-6.61329 -2.64358,0 -4.94406,1.59511 -5.99805,3.86329 h -7.0039 l -0.17383,0.64648 z m 36.70312,3.59961 a 3,3 0 0 0 -2.56836,1.49804 3,3 0 0 0 1.09961,4.09961 c 8.52399,4.92133 13.76758,14.00305 13.76758,23.84571 0,9.84265 -5.24359,18.92632 -13.76758,23.84765 a 3,3 0 0 0 -1.09961,4.09961 3,3 0 0 0 4.09961,1.09766 C 84.16112,73.75387 90.55663,62.6739 90.55663,50.69727 90.55663,38.72064 84.16112,27.64261 73.78905,21.6543 A 3,3 0 0 0 72.2578,21.25391 Z m -7.83008,12.76562 a 3,3 0 0 0 -2.5664,1.5 3,3 0 0 0 1.09765,4.09766 c 3.85894,2.22796 6.22852,6.3351 6.22852,10.79101 0,4.45592 -2.36958,8.56111 -6.22852,10.78907 a 3,3 0 0 0 -1.09765,4.09765 3,3 0 0 0 4.09765,1.09766 c 5.70702,-3.29495 9.22852,-9.39448 9.22852,-15.98438 0,-6.58989 -3.5215,-12.69138 -9.22852,-15.98632 a 3,3 0 0 0 -1.53125,-0.40235 z" />
  </g>
</svg>
