<?xml version="1.0" encoding="UTF-8" standalone="no"?>
<svg
   xmlns:dc="http://purl.org/dc/elements/1.1/"
   xmlns:cc="http://creativecommons.org/ns#"
   xmlns:rdf="http://www.w3.org/1999/02/22-rdf-syntax-ns#"
   xmlns:svg="http://www.w3.org/2000/svg"
   xmlns="http://www.w3.org/2000/svg"
   xmlns:xlink="http://www.w3.org/1999/xlink"
   xmlns:sodipodi="http://sodipodi.sourceforge.net/DTD/sodipodi-0.dtd"
   xmlns:inkscape="http://www.inkscape.org/namespaces/inkscape"
   width="100"
   height="100"
   viewBox="0 0 100 100"
   version="1.1"
   id="svg8"
   inkscape:version="1.0.2 (e86c870879, 2021-01-15)"
   sodipodi:docname="XWeb.svg">
  <defs
     id="defs2"><marker
   style="overflow:visible"
   id="marker1248"
   refX="0.0"
   refY="0.0"
   orient="auto"
   inkscape:stockid="Arrow1Lstart"
   inkscape:isstock="true">
  <path
     transform="scale(0.8) translate(12.5,0)"
     style="fill-rule:evenodd;stroke:#b20027;stroke-width:1pt;stroke-opacity:1;fill:#b20027;fill-opacity:1"
     d="M 0.0,0.0 L 5.0,-5.0 L -12.5,0.0 L 5.0,5.0 L 0.0,0.0 z "
     id="path1246" />
</marker>
<marker
   style="overflow:visible"
   id="Arrow1Lstart"
   refX="0.0"
   refY="0.0"
   orient="auto"
   inkscape:stockid="Arrow1Lstart"
   inkscape:isstock="true">
  <path
     transform="scale(0.8) translate(12.5,0)"
     style="fill-rule:evenodd;stroke:#000000;stroke-width:1pt;stroke-opacity:1;fill:#000000;fill-opacity:1"
     d="M 0.0,0.0 L 5.0,-5.0 L -12.5,0.0 L 5.0,5.0 L 0.0,0.0 z "
     id="path970" />
</marker>
<linearGradient
   inkscape:collect="always"
   xlink:href="#linearGradient1422-4"
   id="linearGradient1512-0"
   gradientUnits="userSpaceOnUse"
   gradientTransform="matrix(0.6153803,0,0,0.68875043,-150.18878,4.2224)"
   x1="162.80794"
   y1="139.05992"
   x2="162.80794"
   y2="64.813721" />
<linearGradient
   inkscape:collect="always"
   id="linearGradient1422-4">
  <stop
     style="stop-color:#000000;stop-opacity:0.2"
     offset="0"
     id="stop7699" />
  <stop
     style="stop-color:#000000;stop-opacity:0"
     offset="1"
     id="stop7701" />
</linearGradient>
<linearGradient
   inkscape:collect="always"
   xlink:href="#linearGradient1422-4-1"
   id="linearGradient7697"
   gradientUnits="userSpaceOnUse"
   gradientTransform="matrix(0.52090559,0,0,0.68875043,-134.80756,-95.77759)"
   x1="162.80794"
   y1="139.05992"
   x2="162.80794"
   y2="49.669369" />
<linearGradient
   id="linearGradient1422-4-1"
   inkscape:collect="always">
  <stop
     id="stop7704"
     offset="0"
     style="stop-color:#ffffff;stop-opacity:0.58823532" />
  <stop
     id="stop7706"
     offset="1"
     style="stop-color:#cccccc;stop-opacity:0;" />
</linearGradient>

	
	
	
	
	
	
</defs>
  <sodipodi:namedview
     id="base"
     pagecolor="#ffffff"
     bordercolor="#666666"
     borderopacity="1.0"
     inkscape:pageopacity="0.0"
     inkscape:pageshadow="2"
     inkscape:zoom="2.8284271"
     inkscape:cx="108.76746"
     inkscape:cy="101.73802"
     inkscape:document-units="px"
     inkscape:current-layer="layer1"
     inkscape:document-rotation="0"
     showgrid="false"
     units="px"
     showguides="false"
     inkscape:snap-bbox="true"
     inkscape:snap-intersection-paths="true"
     inkscape:snap-smooth-nodes="true"
     inkscape:snap-midpoints="true"
     inkscape:object-paths="true"
     inkscape:bbox-paths="true"
     inkscape:bbox-nodes="true"
     inkscape:snap-bbox-edge-midpoints="true"
     inkscape:snap-bbox-midpoints="true"
     inkscape:snap-object-midpoints="true"
     inkscape:snap-center="true"
     inkscape:snap-page="true" />
  <metadata
     id="metadata5">
    <rdf:RDF>
      <cc:Work
         rdf:about="">
        <dc:format>image/svg+xml</dc:format>
        <dc:type
           rdf:resource="http://purl.org/dc/dcmitype/StillImage" />
        <dc:title></dc:title>
      </cc:Work>
    </rdf:RDF>
  </metadata>
  <g
     inkscape:label="Layer 1"
     inkscape:groupmode="layer"
     id="layer1">
    <circle
       r="50"
       style="display:inline;opacity:0.988;fill:#3fb0ff;fill-opacity:1;stroke:none;stroke-width:5.4336;stroke-linecap:round;stroke-linejoin:round;stroke-miterlimit:4;stroke-dasharray:none;stroke-dashoffset:0;stroke-opacity:1;paint-order:normal"
       id="ellipse3490"
       cx="50"
       cy="50.000004" />
    <ellipse
       ry="25.568554"
       rx="36.963703"
       cy="74.431458"
       cx="-50"
       id="ellipse1502-1"
       style="display:inline;opacity:0.988;fill:url(#linearGradient1512-0);fill-opacity:1;stroke:none;stroke-width:4.55723;stroke-linecap:round;stroke-linejoin:round;stroke-miterlimit:4;stroke-dasharray:none;stroke-dashoffset:0;stroke-opacity:1;paint-order:normal"
       transform="scale(-1,1)" />
    <ellipse
       cx="-50.000015"
       cy="-25.568544"
       rx="36.963703"
       ry="25.568554"
       transform="scale(-1)"
       id="ellipse7695"
       style="display:inline;opacity:0.988;fill:url(#linearGradient7697);fill-opacity:1;stroke:none;stroke-width:4.19284;stroke-linecap:round;stroke-linejoin:round;stroke-miterlimit:4;stroke-dasharray:none;stroke-dashoffset:0;stroke-opacity:1;paint-order:normal" />
    <g
       id="g896"
       transform="matrix(0.81135903,0,0,0.81135903,9.4320485,9.4320485)">
</g>
    <polygon
       fill="#00537e"
       points="32.4,31.8 42.9,31.8 25.1,54 36.4,67.9 26,67.9 18.5,58.7 11.4,67.9 0.7,67.9 12,54.1 1.6,41.3 12.1,41.3 18.5,49.1 "
       id="polygon898"
       transform="matrix(0.81135903,0,0,0.81135903,9.4320485,9.4320485)" />
    <polygon
       fill="#00537e"
       points="99.3,41 99.3,68.2 40.6,68.2 28.7,54.2 39.3,41 "
       id="polygon900"
       transform="matrix(0.81135903,0,0,0.81135903,9.4320485,9.4320485)" />
    <polygon
       fill="#ffffff"
       points="48,62.2 50.3,54.6 52.6,62.2 56.6,62.2 61.4,49 56.7,49 54.5,56.1 52.5,49 48,49 46.1,56.2 43.3,49 39.2,49 44,62.2 "
       id="polygon902"
       transform="matrix(0.81135903,0,0,0.81135903,9.4320485,9.4320485)" />
    <path
       fill="#e6e7e6"
       d="m 65.983773,55.598377 3.083164,-3.1643 h -4.300203 c 0,0 -1.78499,0.486816 -1.78499,2.109534 0,1.866125 1.703854,2.271805 1.703854,2.271805 h 7.383368 V 59.89858 H 63.46856 c -0.08114,0 -0.162272,0 -0.243408,-0.08114 -0.649087,-0.405679 -3.975659,-2.352941 -3.975659,-5.273833 0,-3.083165 3.56998,-5.030426 4.137931,-5.35497 0.08114,0 0.08114,0 0.162272,0 h 8.600406 v 4.381339 l -1.947262,2.028397 z"
       id="path904"
       style="stroke-width:0.811359" />
    <circle
       fill="#00a3de"
       cx="60.953346"
       cy="54.38134"
       r="2.2718053"
       id="circle906"
       style="stroke-width:0.811359" />
    <path
       fill="#e6e7e6"
       d="m 81.643002,49.188641 h -4.787018 v -3.326572 h -3.1643 v 14.117647 h 8.600405 c 0,0 3.651116,-0.973631 3.651116,-5.517241 0,-4.624747 -4.300203,-5.273834 -4.300203,-5.273834 z m -0.730223,7.707911 H 76.53144 v -4.787019 h 4.300203 c 0,0 1.703854,0.486816 1.703854,2.352942 0,2.028397 -1.622718,2.434077 -1.622718,2.434077 z"
       id="path908"
       style="stroke-width:0.811359" />
  </g>
</svg>
